<?xml version="1.0" encoding="utf-8"?>
<!-- Generator: Adobe Illustrator 26.3.1, SVG Export Plug-In . SVG Version: 6.00 Build 0)  -->
<svg version="1.1" id="레이어_2" xmlns="http://www.w3.org/2000/svg" xmlns:xlink="http://www.w3.org/1999/xlink" x="0px"
	 y="0px" viewBox="0 0 2000 2000" style="enable-background:new 0 0 2000 2000;" xml:space="preserve">
<g>
	<path d="M660.86,189.87c59.51,0,118.23,0,178.77,0c0-32.35,0-63.18,0-95.3c73.6,0,145.36,0,219.04,0c0-32.04,0-62.81,0-94.56
		c134.31,0,266.7,0,400.38,0c0,66.1,0,131.8,0,199.38c67.28,0,133.31,0,201.22,0c0,67.44,0,133.04,0,199.84
		c67.16,0,132.43,0,198.73,0c0,133.71,0,266.19,0,400.51c-65.57,0-131.23,0-197.72,0c0,133.91,0,265.99,0,400.05
		c65.86,0,131.43,0,197.87,0c0,134.39,0,266.81,0,400.5c-66.24,0-131.95,0-199.4,0c0,66.83,0,132.42,0,199.7
		c-67.34,0-132.97,0-199.83,0c0,67.41,0,133.15,0,200.04c-133.7,0-266.16,0-400.41,0c0-30.56,0-61.41,0-94.01
		c-73.89,0-146.02,0-219.89,0c0-35.4,0-69.04,0-104.18c-60.46,0-119.17,0-178.77,0C660.86,1264.36,660.86,728.45,660.86,189.87z
		 M1059.54,600.81c-0.28,5.8-0.69,10.36-0.69,14.91c-0.04,56.16,0.35,112.32-0.32,168.47c-0.15,12.71,3.27,16.41,16.19,16.36
		c122.99-0.48,245.98-0.28,368.98-0.28c4.94,0,9.88,0,15.03,0c0-67.65,0-133.28,0-199.46
		C1325.56,600.81,1193.41,600.81,1059.54,600.81z M1058.82,1398.95c134.73,0,267.24,0,399.84,0c0-66.55,0-132.15,0-197.7
		c-2.35-0.58-3.66-1.19-4.98-1.2c-128.1-0.08-256.19-0.03-384.29-0.34c-10.54-0.03-10.66,5.56-10.64,13.21
		c0.15,45.02,0.07,90.04,0.07,135.06C1058.82,1364.61,1058.82,1381.23,1058.82,1398.95z"/>
	<path d="M585.88,1808.56c-34.75,0-68.52,0-103.2,0c0-538.63,0-1076.76,0-1616.04c33.82,0,67.9,0,103.2,0
		C585.88,730.55,585.88,1268.98,585.88,1808.56z"/>
	<path d="M310.57,286.95c34.24,0,67.96,0,102.85,0c0,475.11,0,950.13,0,1426.28c-33.48,0-67.56,0-102.85,0
		C310.57,1238.68,310.57,763.66,310.57,286.95z"/>
	<path d="M243.44,1632.36c-34.5,0-68.57,0-103.45,0c0-420.79,0-840.93,0-1262.04c34.2,0,68.29,0,103.45,0
		C243.44,790.6,243.44,1211.07,243.44,1632.36z"/>
</g>
</svg>
